<svg xmlns="http://www.w3.org/2000/svg" width="381" height="128" viewBox="0 0 380.60 128.00" role="img" aria-label="Hygelis — Drug Safety Intelligence"><title>Hygelis — Drug Safety Intelligence</title><g transform="translate(14.00 14.00) scale(1.0000)">
    <path d="M45 7 C31 13 20 15 11 17 C11 52 22 76 47 93" fill="none" stroke="#0B1220" stroke-width="7.5" stroke-linecap="round"/>
    <path d="M55 7 C69 13 80 15 89 17 C89 52 78 76 53 93" fill="none" stroke="#0B1220" stroke-width="7.5" stroke-linecap="round"/>
    <path d="M29 66 L46 52 L71 30" fill="none" stroke="#18B6A4" stroke-width="6" stroke-linecap="round" stroke-linejoin="round"/>
    <circle cx="29" cy="66" r="7" fill="#2F80ED"/><circle cx="46" cy="52" r="7" fill="#2F80ED"/><circle cx="71" cy="30" r="8.5" fill="#18B6A4"/>
  </g><path transform="translate(140.00 70.00)" d="M3.369140625 0.0V-33.466796875H9.3662109375V-19.630859375H24.931640625V-33.466796875H30.9287109375V0.0H24.931640625V-14.5771484375H9.3662109375V0.0ZM52.8344140625 0.0V-12.9599609375L40.4808984375 -33.466796875H47.4887109375L53.4633203125 -22.91015625Q54.159609375 -21.6748046875 54.74359375 -20.51806640625Q55.327578125 -19.361328125 55.866640625 -17.96875Q56.4281640625 -19.40625 57.00091796875 -20.56298828125Q57.573671875 -21.7197265625 58.2250390625 -22.91015625L64.08734375 -33.466796875H71.050234375L58.831484375 -12.9599609375V0.0ZM93.2030078125 0.44921875Q88.5760546875 0.44921875 85.094609375 -1.62841796875Q81.6131640625 -3.7060546875 79.6590625 -7.55810546875Q77.7049609375 -11.41015625 77.7049609375 -16.6884765625Q77.7049609375 -22.0791015625 79.71521484375 -25.93115234375Q81.72546875 -29.783203125 85.184453125 -31.849609375Q88.6434375 -33.916015625 93.0233203125 -33.916015625Q96.7069140625 -33.916015625 99.70544921875 -32.5009765625Q102.703984375 -31.0859375 104.64685546875 -28.5703125Q106.5897265625 -26.0546875 107.106328125 -22.775390625H100.9744921875Q100.1658984375 -25.4482421875 98.15564453125 -26.998046875Q96.145390625 -28.5478515625 93.090703125 -28.5478515625Q90.395390625 -28.5478515625 88.27283203125 -27.177734375Q86.1502734375 -25.8076171875 84.9373828125 -23.16845703125Q83.7244921875 -20.529296875 83.7244921875 -16.7333984375Q83.7244921875 -11.05078125 86.36365234375 -7.98486328125Q89.0028125 -4.9189453125 93.22546875 -4.9189453125Q96.99890625 -4.9189453125 99.245 -7.04150390625Q101.49109375 -9.1640625 101.5809375 -12.7802734375H93.854375V-17.4970703125H107.3983203125V-13.4765625Q107.3983203125 -9.1865234375 105.56775390625 -6.05322265625Q103.7371875 -2.919921875 100.53650390625 -1.2353515625Q97.3358203125 0.44921875 93.2030078125 0.44921875ZM118.275703125 0.0V-33.466796875H140.017890625V-28.4130859375H124.2727734375V-19.3837890625H138.849921875V-14.3974609375H124.2727734375V-5.0537109375H140.107734375V0.0ZM151.187265625 0.0V-33.466796875H157.1843359375V-5.0537109375H171.9636328125V0.0ZM188.2541015625 -33.466796875V0.0H182.25703125V-33.466796875ZM211.799453125 0.5166015625Q205.959609375 0.5166015625 202.48939453125 -2.1787109375Q199.0191796875 -4.8740234375 198.81703125 -9.837890625H204.7242578125Q204.92640625 -7.1875 206.9254296875 -5.89599609375Q208.924453125 -4.6044921875 211.75453125 -4.6044921875Q214.719375 -4.6044921875 216.59486328125 -5.94091796875Q218.4703515625 -7.27734375 218.4703515625 -9.43359375Q218.4703515625 -11.3876953125 216.8082421875 -12.38720703125Q215.1461328125 -13.38671875 212.428359375 -14.0830078125L208.6324609375 -15.0712890625Q204.432265625 -16.1494140625 202.08509765625 -18.328125Q199.7379296875 -20.5068359375 199.7379296875 -24.0556640625Q199.7379296875 -27.0205078125 201.33265625 -29.23291015625Q202.9273828125 -31.4453125 205.690078125 -32.6806640625Q208.4527734375 -33.916015625 211.9566796875 -33.916015625Q215.52796875 -33.916015625 218.21205078125 -32.6806640625Q220.8961328125 -31.4453125 222.4234765625 -29.2666015625Q223.9508203125 -27.087890625 224.018203125 -24.302734375H218.2008203125Q217.9762109375 -26.4365234375 216.28041015625 -27.626953125Q214.584609375 -28.8173828125 211.8668359375 -28.8173828125Q209.0367578125 -28.8173828125 207.4195703125 -27.57080078125Q205.8023828125 -26.32421875 205.8023828125 -24.4150390625Q205.8023828125 -23.0 206.66712890625 -22.11279296875Q207.531875 -21.2255859375 208.84583984375 -20.6865234375Q210.1598046875 -20.1474609375 211.5074609375 -19.810546875L214.62953125 -19.001953125Q217.100234375 -18.3955078125 219.35755859375 -17.26123046875Q221.6148828125 -16.126953125 223.04115234375 -14.2177734375Q224.467421875 -12.30859375 224.467421875 -9.388671875Q224.467421875 -6.4462890625 222.9625390625 -4.21142578125Q221.45765625 -1.9765625 218.627578125 -0.72998046875Q215.7975 0.5166015625 211.799453125 0.5166015625Z" fill="#0B1220"/><path transform="translate(141.00 98.00)" d="M5.55419921875 0.0H1.409912109375V-12.73193359375H5.673828125Q7.5537109375 -12.73193359375 8.895263671875 -11.9671630859375Q10.23681640625 -11.202392578125 10.95458984375 -9.783935546875Q11.67236328125 -8.365478515625 11.67236328125 -6.383056640625Q11.67236328125 -4.39208984375 10.9503173828125 -2.965087890625Q10.228271484375 -1.5380859375 8.8568115234375 -0.76904296875Q7.4853515625 0.0 5.55419921875 0.0ZM3.358154296875 -1.708984375H5.443115234375Q7.60498046875 -1.708984375 8.681640625 -2.9180908203125Q9.75830078125 -4.127197265625 9.75830078125 -6.383056640625Q9.75830078125 -8.63037109375 8.6944580078125 -9.82666015625Q7.630615234375 -11.02294921875 5.545654296875 -11.02294921875H3.358154296875ZM14.24404296875 0.0V-9.55322265625H16.064111328125V-8.01513671875H16.166650390625Q16.422998046875 -8.792724609375 17.0852294921875 -9.2413330078125Q17.7474609375 -9.68994140625 18.58486328125 -9.68994140625Q18.764306640625 -9.68994140625 18.9992919921875 -9.6728515625Q19.23427734375 -9.65576171875 19.379541015625 -9.638671875V-7.84423828125Q19.277001953125 -7.869873046875 18.986474609375 -7.9083251953125Q18.695947265625 -7.94677734375 18.396875 -7.94677734375Q17.414208984375 -7.94677734375 16.7690673828125 -7.3443603515625Q16.12392578125 -6.741943359375 16.12392578125 -5.802001953125V0.0ZM24.617236328125 0.11962890625Q23.1560546875 0.11962890625 22.258837890625 -0.7989501953125Q21.36162109375 -1.717529296875 21.36162109375 -3.486328125V-9.55322265625H23.24150390625V-3.717041015625Q23.24150390625 -2.68310546875 23.7841064453125 -2.10205078125Q24.326708984375 -1.52099609375 25.25810546875 -1.52099609375Q26.21513671875 -1.52099609375 26.8474609375 -2.1405029296875Q27.47978515625 -2.760009765625 27.47978515625 -3.896484375V-9.55322265625H29.368212890625V0.0H27.565234375L27.556689453125 -1.854248046875Q27.10380859375 -0.811767578125 26.3561279296875 -0.3460693359375Q25.608447265625 0.11962890625 24.617236328125 0.11962890625ZM36.23798828125 3.77685546875Q34.5802734375 3.77685546875 33.580517578125 3.170166015625Q32.58076171875 2.5634765625 32.179150390625 1.700439453125L33.751416015625 0.95703125Q33.922314453125 1.23046875 34.2085693359375 1.5338134765625Q34.49482421875 1.837158203125 34.9776123046875 2.05078125Q35.460400390625 2.264404296875 36.229443359375 2.264404296875Q37.3146484375 2.264404296875 37.9982421875 1.7474365234375Q38.6818359375 1.23046875 38.6818359375 0.128173828125V-1.734619140625H38.519482421875Q38.348583984375 -1.41845703125 38.0452392578125 -1.051025390625Q37.74189453125 -0.68359375 37.1992919921875 -0.4144287109375Q36.656689453125 -0.145263671875 35.785107421875 -0.145263671875Q34.657177734375 -0.145263671875 33.7556884765625 -0.675048828125Q32.85419921875 -1.204833984375 32.3244140625 -2.2430419921875Q31.794628906249997 -3.28125 31.794628906249997 -4.810791015625Q31.794628906249997 -6.331787109375 32.3201416015625 -7.4212646484375Q32.845654296875 -8.5107421875 33.751416015625 -9.091796875Q34.657177734375 -9.6728515625 35.8107421875 -9.6728515625Q36.690869140625 -9.6728515625 37.2420166015625 -9.3780517578125Q37.7931640625 -9.083251953125 38.1050537109375 -8.690185546875Q38.416943359375 -8.297119140625 38.579296875 -7.998046875H38.716015625V-9.55322265625H40.553173828125V0.13671875Q40.553173828125 1.392822265625 39.9806640625 2.196044921875Q39.408154296875 2.999267578125 38.434033203125 3.3880615234375Q37.459912109375 3.77685546875 36.23798828125 3.77685546875ZM36.2208984375 -1.708984375Q37.4171875 -1.708984375 38.0537841796875 -2.537841796875Q38.690380859375 -3.36669921875 38.690380859375 -4.83642578125Q38.690380859375 -6.27197265625 38.0623291015625 -7.1734619140625Q37.43427734375 -8.074951171875 36.2208984375 -8.074951171875Q35.392041015625 -8.074951171875 34.8323486328125 -7.6434326171875Q34.27265625 -7.2119140625 33.9949462890625 -6.4813232421875Q33.717236328125 -5.750732421875 33.717236328125 -4.83642578125Q33.717236328125 -3.43505859375 34.3538330078125 -2.572021484375Q34.9904296875 -1.708984375 36.2208984375 -1.708984375ZM52.86572265625 0.213623046875Q50.720947265625 0.213623046875 49.44775390625 -0.7904052734375Q48.174560546875 -1.79443359375 48.089111328125 -3.53759765625H50.0458984375Q50.13134765625 -2.4951171875 50.943115234375 -1.9952392578125Q51.7548828125 -1.495361328125 52.857177734375 -1.495361328125Q54.070556640625 -1.495361328125 54.865234375 -2.059326171875Q55.659912109375 -2.623291015625 55.659912109375 -3.546142578125Q55.659912109375 -4.375 54.9635009765625 -4.7808837890625Q54.26708984375 -5.186767578125 53.24169921875 -5.460205078125L51.7548828125 -5.870361328125Q50.191162109375 -6.2890625 49.3153076171875 -7.109375Q48.439453125 -7.9296875 48.439453125 -9.237060546875Q48.439453125 -10.33935546875 49.0333251953125 -11.1639404296875Q49.627197265625 -11.988525390625 50.6483154296875 -12.4456787109375Q51.66943359375 -12.90283203125 52.951171875 -12.90283203125Q54.258544921875 -12.90283203125 55.2540283203125 -12.4456787109375Q56.24951171875 -11.988525390625 56.8177490234375 -11.1895751953125Q57.385986328125 -10.390625 57.41162109375 -9.38232421875H55.5146484375Q55.420654296875 -10.25390625 54.7071533203125 -10.732421875Q53.99365234375 -11.2109375 52.908447265625 -11.2109375Q51.7548828125 -11.2109375 51.0712890625 -10.6854248046875Q50.3876953125 -10.159912109375 50.3876953125 -9.34814453125Q50.3876953125 -8.741455078125 50.755126953125 -8.3697509765625Q51.12255859375 -7.998046875 51.6566162109375 -7.7801513671875Q52.190673828125 -7.562255859375 52.677734375 -7.43408203125L53.916748046875 -7.109375Q54.5234375 -6.95556640625 55.1685791015625 -6.6949462890625Q55.813720703125 -6.434326171875 56.360595703125 -6.0198974609375Q56.907470703125 -5.60546875 57.2449951171875 -4.9945068359375Q57.58251953125 -4.383544921875 57.58251953125 -3.5205078125Q57.58251953125 -2.44384765625 57.027099609375 -1.597900390625Q56.4716796875 -0.751953125 55.4163818359375 -0.2691650390625Q54.361083984375 0.213623046875 52.86572265625 0.213623046875ZM62.777490234375 0.213623046875Q61.86318359375 0.213623046875 61.1325927734375 -0.1239013671875Q60.402001953125 -0.46142578125 59.974755859375 -1.11083984375Q59.547509765625 -1.76025390625 59.547509765625 -2.7001953125Q59.547509765625 -3.511962890625 59.863671875 -4.0374755859375Q60.179833984375 -4.56298828125 60.709619140625 -4.8663330078125Q61.239404296875 -5.169677734375 61.8930908203125 -5.323486328125Q62.54677734375 -5.477294921875 63.221826171875 -5.55419921875Q64.486474609375 -5.699462890625 65.058984375 -5.8062744140625Q65.631494140625 -5.9130859375 65.631494140625 -6.417236328125V-6.468505859375Q65.631494140625 -7.26318359375 65.1657958984375 -7.7032470703125Q64.70009765625 -8.143310546875 63.802880859375 -8.143310546875Q62.862939453125 -8.143310546875 62.324609375 -7.733154296875Q61.786279296875 -7.322998046875 61.58974609375 -6.8359375L59.820947265625 -7.29736328125Q60.145654296875 -8.15185546875 60.75234375 -8.673095703125Q61.359033203125 -9.1943359375 62.1408935546875 -9.43359375Q62.92275390625 -9.6728515625 63.77724609375 -9.6728515625Q64.349755859375 -9.6728515625 64.999169921875 -9.5361328125Q65.648583984375 -9.3994140625 66.22109375 -9.0447998046875Q66.793603515625 -8.690185546875 67.152490234375 -8.0322265625Q67.511376953125 -7.374267578125 67.511376953125 -6.34033203125V0.0H65.69130859375V-1.307373046875H65.597314453125Q65.31533203125 -0.743408203125 64.6274658203125 -0.264892578125Q63.939599609375 0.213623046875 62.777490234375 0.213623046875ZM63.19619140625 -1.298828125Q63.956689453125 -1.298828125 64.503564453125 -1.6021728515625Q65.050439453125 -1.905517578125 65.3452392578125 -2.392578125Q65.6400390625 -2.879638671875 65.6400390625 -3.443603515625V-4.66552734375Q65.5033203125 -4.52880859375 65.0547119140625 -4.4305419921875Q64.606103515625 -4.332275390625 64.110498046875 -4.263916015625Q63.614892578125 -4.195556640625 63.324365234375 -4.161376953125Q62.5296875 -4.05029296875 61.9614501953125 -3.7298583984375Q61.393212890625 -3.409423828125 61.393212890625 -2.674560546875Q61.393212890625 -1.990966796875 61.9016357421875 -1.6448974609375Q62.41005859375 -1.298828125 63.19619140625 -1.298828125ZM75.124560546875 -9.55322265625V-8.023681640625H72.988330078125V0.0H71.108447265625V-8.023681640625H69.296923828125V-9.55322265625H71.108447265625V-10.64697265625Q71.108447265625 -11.53564453125 71.5057861328125 -12.1337890625Q71.903125 -12.73193359375 72.5482666015625 -13.031005859375Q73.193408203125 -13.330078125 73.95390625 -13.330078125Q74.51787109375 -13.330078125 74.9237548828125 -13.2403564453125Q75.329638671875 -13.150634765625 75.526171875 -13.07373046875L75.090380859375 -11.552734375Q74.953662109375 -11.5869140625 74.748583984375 -11.63818359375Q74.543505859375 -11.689453125 74.252978515625 -11.689453125Q73.5779296875 -11.689453125 73.2831298828125 -11.356201171875Q72.988330078125 -11.02294921875 72.988330078125 -10.390625V-9.55322265625ZM81.028759765625 0.196533203125Q79.61884765625 0.196533203125 78.59345703125 -0.41015625Q77.56806640625 -1.016845703125 77.0169189453125 -2.119140625Q76.465771484375 -3.221435546875 76.465771484375 -4.708251953125Q76.465771484375 -6.177978515625 77.0083740234375 -7.29736328125Q77.5509765625 -8.416748046875 78.5421875 -9.0447998046875Q79.5333984375 -9.6728515625 80.86640625 -9.6728515625Q81.951611328125 -9.6728515625 82.9300048828125 -9.1900634765625Q83.9083984375 -8.707275390625 84.5193603515625 -7.6519775390625Q85.130322265625 -6.5966796875 85.130322265625 -4.87060546875V-4.2041015625H78.35419921875Q78.40546875 -2.81982421875 79.14033203125 -2.0892333984375Q79.8751953125 -1.358642578125 81.045849609375 -1.358642578125Q81.831982421875 -1.358642578125 82.4002197265625 -1.700439453125Q82.96845703125 -2.042236328125 83.216259765625 -2.708740234375L84.98505859375 -2.2900390625Q84.64326171875 -1.170654296875 83.60078125 -0.487060546875Q82.55830078125 0.196533203125 81.028759765625 0.196533203125ZM78.362744140625 -5.60546875H83.267529296875Q83.164990234375 -6.7333984375 82.5625732421875 -7.425537109375Q81.96015625 -8.11767578125 80.874951171875 -8.11767578125Q79.747021484375 -8.11767578125 79.0933349609375 -7.3785400390625Q78.4396484375 -6.639404296875 78.362744140625 -5.60546875ZM91.62412109374999 -9.55322265625V-8.023681640625H89.71860351562499V-2.58056640625Q89.71860351562499 -2.008056640625 89.96213378906249 -1.7388916015625Q90.20566406249999 -1.4697265625 90.76108398437499 -1.4697265625Q90.91489257812499 -1.4697265625 91.14987792968749 -1.50390625Q91.38486328124999 -1.5380859375 91.55576171874999 -1.572265625L91.88901367187499 -0.068359375Q91.58994140624999 0.0341796875 91.24387207031249 0.0811767578125Q90.89780273437499 0.128173828125 90.57309570312499 0.128173828125Q89.27426757812499 0.128173828125 88.55649414062499 -0.5426025390625Q87.83872070312499 -1.21337890625 87.83872070312499 -2.4267578125V-8.023681640625H86.44589843749999V-9.55322265625H87.83872070312499V-11.826171875H89.71860351562499V-9.55322265625ZM94.07617187499999 3.43505859375 94.53759765624999 1.905517578125 94.75122070312499 1.956787109375Q95.47753906249999 2.1533203125 95.98596191406249 1.9097900390625Q96.49438476562499 1.666259765625 96.75927734374999 0.743408203125L96.96435546874999 0.042724609375L93.33276367187499 -9.55322265625H95.36645507812499L97.25488281249999 -4.127197265625Q97.46850585937499 -3.494873046875 97.63085937499999 -2.879638671875Q97.79321289062499 -2.264404296875 97.94702148437499 -1.649169921875Q98.10937499999999 -2.264404296875 98.28027343749999 -2.8839111328125Q98.45117187499999 -3.50341796875 98.67333984374999 -4.127197265625L100.59594726562499 -9.55322265625H102.61254882812499L98.45971679687499 1.324462890625Q98.02392578124999 2.469482421875 97.28479003906249 3.0548095703125Q96.54565429687499 3.64013671875 95.39208984374999 3.64013671875Q94.94775390624999 3.64013671875 94.60168457031249 3.5760498046875Q94.25561523437499 3.511962890625 94.07617187499999 3.43505859375ZM111.72929687499997 -12.73193359375V0.0H109.78105468749997V-12.73193359375ZM116.63374023437497 -5.65673828125V0.0H114.75385742187497V-9.55322265625H116.54829101562497L116.55683593749997 -7.716064453125Q117.00117187499997 -8.724365234375 117.74885253906247 -9.1986083984375Q118.49653320312497 -9.6728515625 119.50483398437497 -9.6728515625Q120.96601562499997 -9.6728515625 121.85895996093747 -8.7542724609375Q122.75190429687497 -7.835693359375 122.75190429687497 -6.06689453125V0.0H120.87202148437497V-5.836181640625Q120.87202148437497 -6.8701171875 120.33369140624997 -7.451171875Q119.79536132812497 -8.0322265625 118.85541992187497 -8.0322265625Q117.89838867187497 -8.0322265625 117.26606445312497 -7.4127197265625Q116.63374023437497 -6.793212890625 116.63374023437497 -5.65673828125ZM129.71567382812498 -9.55322265625V-8.023681640625H127.81015624999996V-2.58056640625Q127.81015624999996 -2.008056640625 128.05368652343748 -1.7388916015625Q128.29721679687498 -1.4697265625 128.85263671874998 -1.4697265625Q129.00644531249998 -1.4697265625 129.24143066406248 -1.50390625Q129.47641601562498 -1.5380859375 129.64731445312498 -1.572265625L129.98056640624998 -0.068359375Q129.68149414062498 0.0341796875 129.33542480468748 0.0811767578125Q128.98935546874998 0.128173828125 128.66464843749998 0.128173828125Q127.36582031249996 0.128173828125 126.64804687499996 -0.5426025390625Q125.93027343749996 -1.21337890625 125.93027343749996 -2.4267578125V-8.023681640625H124.53745117187496V-9.55322265625H125.93027343749996V-11.826171875H127.81015624999996V-9.55322265625ZM135.88476562499997 0.196533203125Q134.47485351562497 0.196533203125 133.44946289062497 -0.41015625Q132.42407226562497 -1.016845703125 131.87292480468747 -2.119140625Q131.32177734374997 -3.221435546875 131.32177734374997 -4.708251953125Q131.32177734374997 -6.177978515625 131.86437988281247 -7.29736328125Q132.40698242187497 -8.416748046875 133.39819335937497 -9.0447998046875Q134.38940429687497 -9.6728515625 135.72241210937497 -9.6728515625Q136.80761718749997 -9.6728515625 137.78601074218747 -9.1900634765625Q138.76440429687497 -8.707275390625 139.37536621093747 -7.6519775390625Q139.98632812499997 -6.5966796875 139.98632812499997 -4.87060546875V-4.2041015625H133.21020507812497Q133.26147460937497 -2.81982421875 133.99633789062497 -2.0892333984375Q134.73120117187497 -1.358642578125 135.90185546874997 -1.358642578125Q136.68798828124997 -1.358642578125 137.25622558593747 -1.700439453125Q137.82446289062497 -2.042236328125 138.07226562499997 -2.708740234375L139.84106445312497 -2.2900390625Q139.49926757812497 -1.170654296875 138.45678710937497 -0.487060546875Q137.41430664062497 0.196533203125 135.88476562499997 0.196533203125ZM133.21874999999997 -5.60546875H138.12353515624997Q138.02099609374997 -6.7333984375 137.41857910156247 -7.425537109375Q136.81616210937497 -8.11767578125 135.73095703124997 -8.11767578125Q134.60302734374997 -8.11767578125 133.94934082031247 -7.3785400390625Q133.29565429687497 -6.639404296875 133.21874999999997 -5.60546875ZM144.27553710937497 -12.73193359375V0.0H142.39565429687497V-12.73193359375ZM149.03471679687496 -12.73193359375V0.0H147.15483398437496V-12.73193359375ZM151.91401367187495 0.0V-9.55322265625H153.79389648437495V0.0ZM152.86249999999995 -11.014404296875Q152.37543945312495 -11.014404296875 152.02937011718745 -11.339111328125Q151.68330078124995 -11.663818359375 151.68330078124995 -12.125244140625Q151.68330078124995 -12.59521484375 152.02937011718745 -12.919921875Q152.37543945312495 -13.24462890625 152.86249999999995 -13.24462890625Q153.34956054687495 -13.24462890625 153.69990234374995 -12.919921875Q154.05024414062495 -12.59521484375 154.05024414062495 -12.125244140625Q154.05024414062495 -11.663818359375 153.69990234374995 -11.339111328125Q153.34956054687495 -11.014404296875 152.86249999999995 -11.014404296875ZM160.67221679687495 3.77685546875Q159.01450195312495 3.77685546875 158.01474609374995 3.170166015625Q157.01499023437495 2.5634765625 156.61337890624995 1.700439453125L158.18564453124995 0.95703125Q158.35654296874995 1.23046875 158.64279785156245 1.5338134765625Q158.92905273437495 1.837158203125 159.41184082031245 2.05078125Q159.89462890624995 2.264404296875 160.66367187499995 2.264404296875Q161.74887695312495 2.264404296875 162.43247070312495 1.7474365234375Q163.11606445312495 1.23046875 163.11606445312495 0.128173828125V-1.734619140625H162.95371093749995Q162.78281249999995 -1.41845703125 162.47946777343745 -1.051025390625Q162.17612304687495 -0.68359375 161.63352050781245 -0.4144287109375Q161.09091796874995 -0.145263671875 160.21933593749995 -0.145263671875Q159.09140624999995 -0.145263671875 158.18991699218745 -0.675048828125Q157.28842773437495 -1.204833984375 156.75864257812495 -2.2430419921875Q156.22885742187495 -3.28125 156.22885742187495 -4.810791015625Q156.22885742187495 -6.331787109375 156.75437011718745 -7.4212646484375Q157.27988281249995 -8.5107421875 158.18564453124995 -9.091796875Q159.09140624999995 -9.6728515625 160.24497070312495 -9.6728515625Q161.12509765624995 -9.6728515625 161.67624511718745 -9.3780517578125Q162.22739257812495 -9.083251953125 162.53928222656245 -8.690185546875Q162.85117187499995 -8.297119140625 163.01352539062495 -7.998046875H163.15024414062495V-9.55322265625H164.98740234374995V0.13671875Q164.98740234374995 1.392822265625 164.41489257812495 2.196044921875Q163.84238281249995 2.999267578125 162.86826171874995 3.3880615234375Q161.89414062499995 3.77685546875 160.67221679687495 3.77685546875ZM160.65512695312495 -1.708984375Q161.85141601562495 -1.708984375 162.48801269531245 -2.537841796875Q163.12460937499995 -3.36669921875 163.12460937499995 -4.83642578125Q163.12460937499995 -6.27197265625 162.49655761718745 -7.1734619140625Q161.86850585937495 -8.074951171875 160.65512695312495 -8.074951171875Q159.82626953124995 -8.074951171875 159.26657714843745 -7.6434326171875Q158.70688476562495 -7.2119140625 158.42917480468745 -6.4813232421875Q158.15146484374995 -5.750732421875 158.15146484374995 -4.83642578125Q158.15146484374995 -3.43505859375 158.78806152343745 -2.572021484375Q159.42465820312495 -1.708984375 160.65512695312495 -1.708984375ZM171.98535156249994 0.196533203125Q170.57543945312494 0.196533203125 169.55004882812494 -0.41015625Q168.52465820312494 -1.016845703125 167.97351074218744 -2.119140625Q167.42236328124994 -3.221435546875 167.42236328124994 -4.708251953125Q167.42236328124994 -6.177978515625 167.96496582031244 -7.29736328125Q168.50756835937494 -8.416748046875 169.49877929687494 -9.0447998046875Q170.48999023437494 -9.6728515625 171.82299804687494 -9.6728515625Q172.90820312499994 -9.6728515625 173.88659667968744 -9.1900634765625Q174.86499023437494 -8.707275390625 175.47595214843744 -7.6519775390625Q176.08691406249994 -6.5966796875 176.08691406249994 -4.87060546875V-4.2041015625H169.31079101562494Q169.36206054687494 -2.81982421875 170.09692382812494 -2.0892333984375Q170.83178710937494 -1.358642578125 172.00244140624994 -1.358642578125Q172.78857421874994 -1.358642578125 173.35681152343744 -1.700439453125Q173.92504882812494 -2.042236328125 174.17285156249994 -2.708740234375L175.94165039062494 -2.2900390625Q175.59985351562494 -1.170654296875 174.55737304687494 -0.487060546875Q173.51489257812494 0.196533203125 171.98535156249994 0.196533203125ZM169.31933593749994 -5.60546875H174.22412109374994Q174.12158203124994 -6.7333984375 173.51916503906244 -7.425537109375Q172.91674804687494 -8.11767578125 171.83154296874994 -8.11767578125Q170.70361328124994 -8.11767578125 170.04992675781244 -7.3785400390625Q169.39624023437494 -6.639404296875 169.31933593749994 -5.60546875ZM180.37612304687494 -5.65673828125V0.0H178.49624023437494V-9.55322265625H180.29067382812494L180.29921874999994 -7.716064453125Q180.74355468749994 -8.724365234375 181.49123535156244 -9.1986083984375Q182.23891601562494 -9.6728515625 183.24721679687494 -9.6728515625Q184.70839843749994 -9.6728515625 185.60134277343744 -8.7542724609375Q186.49428710937494 -7.835693359375 186.49428710937494 -6.06689453125V0.0H184.61440429687494V-5.836181640625Q184.61440429687494 -6.8701171875 184.07607421874994 -7.451171875Q183.53774414062494 -8.0322265625 182.59780273437494 -8.0322265625Q181.64077148437494 -8.0322265625 181.00844726562494 -7.4127197265625Q180.37612304687494 -6.793212890625 180.37612304687494 -5.65673828125ZM193.38969726562493 0.196533203125Q192.03959960937493 0.196533203125 191.03984374999993 -0.418701171875Q190.04008789062493 -1.033935546875 189.48466796874993 -2.1405029296875Q188.92924804687493 -3.2470703125 188.92924804687493 -4.725341796875Q188.92924804687493 -6.212158203125 189.48466796874993 -7.3272705078125Q190.04008789062493 -8.4423828125 191.03984374999993 -9.0576171875Q192.03959960937493 -9.6728515625 193.38969726562493 -9.6728515625Q194.87651367187493 -9.6728515625 195.95744628906243 -8.9251708984375Q197.03837890624993 -8.177490234375 197.38872070312493 -6.85302734375L195.60283203124993 -6.42578125Q195.40629882812493 -7.169189453125 194.83806152343743 -7.6263427734375Q194.26982421874993 -8.08349609375 193.39824218749993 -8.08349609375Q192.53520507812493 -8.08349609375 191.96696777343743 -7.630615234375Q191.39873046874993 -7.177734375 191.12102050781243 -6.4129638671875Q190.84331054687493 -5.648193359375 190.84331054687493 -4.725341796875Q190.84331054687493 -3.81103515625 191.12102050781243 -3.0548095703125Q191.39873046874993 -2.298583984375 191.96696777343743 -1.845703125Q192.53520507812493 -1.392822265625 193.39824218749993 -1.392822265625Q194.28691406249993 -1.392822265625 194.86796874999993 -1.8670654296875Q195.44902343749993 -2.34130859375 195.63701171874993 -3.118896484375L197.41435546874993 -2.691650390625Q197.06401367187493 -1.341552734375 195.97880859374993 -0.572509765625Q194.89360351562493 0.196533203125 193.38969726562493 0.196533203125ZM203.94233398437493 0.196533203125Q202.53242187499993 0.196533203125 201.50703124999993 -0.41015625Q200.48164062499993 -1.016845703125 199.93049316406243 -2.119140625Q199.37934570312493 -3.221435546875 199.37934570312493 -4.708251953125Q199.37934570312493 -6.177978515625 199.92194824218743 -7.29736328125Q200.46455078124993 -8.416748046875 201.45576171874993 -9.0447998046875Q202.44697265624993 -9.6728515625 203.77998046874993 -9.6728515625Q204.86518554687493 -9.6728515625 205.84357910156243 -9.1900634765625Q206.82197265624993 -8.707275390625 207.43293457031243 -7.6519775390625Q208.04389648437493 -6.5966796875 208.04389648437493 -4.87060546875V-4.2041015625H201.26777343749993Q201.31904296874993 -2.81982421875 202.05390624999993 -2.0892333984375Q202.78876953124993 -1.358642578125 203.95942382812493 -1.358642578125Q204.74555664062493 -1.358642578125 205.31379394531243 -1.700439453125Q205.88203124999993 -2.042236328125 206.12983398437493 -2.708740234375L207.89863281249993 -2.2900390625Q207.55683593749993 -1.170654296875 206.51435546874993 -0.487060546875Q205.47187499999993 0.196533203125 203.94233398437493 0.196533203125ZM201.27631835937493 -5.60546875H206.18110351562493Q206.07856445312493 -6.7333984375 205.47614746093743 -7.425537109375Q204.87373046874993 -8.11767578125 203.78852539062493 -8.11767578125Q202.66059570312493 -8.11767578125 202.00690917968743 -7.3785400390625Q201.35322265624993 -6.639404296875 201.27631835937493 -5.60546875Z" fill="#526071"/></svg>
