<svg xmlns="http://www.w3.org/2000/svg" width="737" height="560" viewBox="0 0 736.75 560.00" role="img" aria-label="Hygelis — Find the signal. Protect the patient."><title>Hygelis — Find the signal. Protect the patient.</title><g transform="translate(273.38 60.00) scale(1.9000)">
    <path d="M45 7 C31 13 20 15 11 17 C11 52 22 76 47 93" fill="none" stroke="#0B1220" stroke-width="7.5" stroke-linecap="round"/>
    <path d="M55 7 C69 13 80 15 89 17 C89 52 78 76 53 93" fill="none" stroke="#0B1220" stroke-width="7.5" stroke-linecap="round"/>
    <path d="M29 66 L46 52 L71 30" fill="none" stroke="#18B6A4" stroke-width="6" stroke-linecap="round" stroke-linejoin="round"/>
    <circle cx="29" cy="66" r="7" fill="#2F80ED"/><circle cx="46" cy="52" r="7" fill="#2F80ED"/><circle cx="71" cy="30" r="8.5" fill="#18B6A4"/>
  </g><path transform="translate(151.63 360.00)" d="M6.4453125 0.0V-64.0234375H17.91796875V-37.5546875H47.6953125V-64.0234375H59.16796875V0.0H47.6953125V-27.88671875H17.91796875V0.0ZM101.07453125 0.0V-24.79296875L77.44171875 -64.0234375H90.84796875L102.27765625 -43.828125Q103.6096875 -41.46484375 104.726875 -39.251953125Q105.8440625 -37.0390625 106.8753125 -34.375Q107.94953125 -37.125 109.045234375 -39.337890625Q110.1409375 -41.55078125 111.38703125 -43.828125L122.601875 -64.0234375H135.9221875L112.5471875 -24.79296875V0.0ZM178.30140625 0.859375Q169.44984375 0.859375 162.7896875 -3.115234375Q156.12953125 -7.08984375 152.39125 -14.458984375Q148.65296875 -21.828125 148.65296875 -31.92578125Q148.65296875 -42.23828125 152.498671875 -49.607421875Q156.344375 -56.9765625 162.9615625 -60.9296875Q169.57875 -64.8828125 177.95765625 -64.8828125Q185.00453125 -64.8828125 190.740859375 -62.17578125Q196.4771875 -59.46875 200.193984375 -54.65625Q203.91078125 -49.84375 204.8990625 -43.5703125H193.16859375Q191.62171875 -48.68359375 187.776015625 -51.6484375Q183.9303125 -54.61328125 178.0865625 -54.61328125Q172.9303125 -54.61328125 168.869765625 -51.9921875Q164.80921875 -49.37109375 162.48890625 -44.322265625Q160.16859375 -39.2734375 160.16859375 -32.01171875Q160.16859375 -21.140625 165.217421875 -15.275390625Q170.26625 -9.41015625 178.344375 -9.41015625Q185.563125 -9.41015625 189.86 -13.470703125Q194.156875 -17.53125 194.32875 -24.44921875H179.5475V-33.47265625H205.45765625V-25.78125Q205.45765625 -17.57421875 201.955703125 -11.580078125Q198.45375 -5.5859375 192.330703125 -2.36328125Q186.20765625 0.859375 178.30140625 0.859375ZM226.26656250000002 0.0V-64.0234375H267.8603125V-54.35546875H237.73921875000002V-37.08203125H265.6259375V-27.54296875H237.73921875000002V-9.66796875H268.0321875V0.0ZM289.2278125 0.0V-64.0234375H300.70046875V-9.66796875H328.97390625V0.0ZM360.13828125000003 -64.0234375V0.0H348.66562500000003V-64.0234375ZM405.18156250000004 0.98828125Q394.00968750000004 0.98828125 387.37101562500004 -4.16796875Q380.73234375000004 -9.32421875 380.34562500000004 -18.8203125H391.64640625000004Q392.03312500000004 -13.75 395.85734375000004 -11.279296875Q399.68156250000004 -8.80859375 405.09562500000004 -8.80859375Q410.76750000000004 -8.80859375 414.35539062500004 -11.365234375Q417.94328125000004 -13.921875 417.94328125000004 -18.046875Q417.94328125000004 -21.78515625 414.76359375000004 -23.697265625Q411.58390625000004 -25.609375 406.38468750000004 -26.94140625L399.12296875000004 -28.83203125Q391.08781250000004 -30.89453125 386.59757812500004 -35.0625Q382.10734375000004 -39.23046875 382.10734375000004 -46.01953125Q382.10734375000004 -51.69140625 385.15812500000004 -55.923828125Q388.20890625000004 -60.15625 393.49406250000004 -62.51953125Q398.77921875000004 -64.8828125 405.48234375000004 -64.8828125Q412.31437500000004 -64.8828125 417.44914062500004 -62.51953125Q422.58390625000004 -60.15625 425.50578125000004 -55.98828125Q428.42765625000004 -51.8203125 428.55656250000004 -46.4921875H417.42765625000004Q416.99796875000004 -50.57421875 413.75382812500004 -52.8515625Q410.50968750000004 -55.12890625 405.31046875000004 -55.12890625Q399.89640625000004 -55.12890625 396.80265625000004 -52.744140625Q393.70890625000004 -50.359375 393.70890625000004 -46.70703125Q393.70890625000004 -44.0 395.36320312500004 -42.302734375Q397.01750000000004 -40.60546875 399.53117187500004 -39.57421875Q402.04484375000004 -38.54296875 404.62296875000004 -37.8984375L410.59562500000004 -36.3515625Q415.32218750000004 -35.19140625 419.64054687500004 -33.021484375Q423.95890625000004 -30.8515625 426.68742187500004 -27.19921875Q429.41593750000004 -23.546875 429.41593750000004 -17.9609375Q429.41593750000004 -12.33203125 426.53703125000004 -8.056640625Q423.65812500000004 -3.78125 418.24406250000004 -1.396484375Q412.83000000000004 0.98828125 405.18156250000004 0.98828125Z" fill="#0B1220"/><path transform="translate(189.37 415.00)" d="M9.521484375 0.0H2.4169921875V-21.826171875H9.7265625Q12.94921875 -21.826171875 15.2490234375 -20.51513671875Q17.548828125 -19.2041015625 18.779296875 -16.7724609375Q20.009765625 -14.3408203125 20.009765625 -10.9423828125Q20.009765625 -7.529296875 18.77197265625 -5.0830078125Q17.5341796875 -2.63671875 15.18310546875 -1.318359375Q12.83203125 0.0 9.521484375 0.0ZM5.7568359375 -2.9296875H9.3310546875Q13.037109375 -2.9296875 14.8828125 -5.00244140625Q16.728515625 -7.0751953125 16.728515625 -10.9423828125Q16.728515625 -14.794921875 14.90478515625 -16.845703125Q13.0810546875 -18.896484375 9.5068359375 -18.896484375H5.7568359375ZM24.418359375 0.0V-16.376953125H27.5384765625V-13.740234375H27.7142578125Q28.1537109375 -15.0732421875 29.28896484375 -15.84228515625Q30.42421875 -16.611328125 31.859765625 -16.611328125Q32.1673828125 -16.611328125 32.57021484375 -16.58203125Q32.973046875 -16.552734375 33.2220703125 -16.5234375V-13.447265625Q33.0462890625 -13.4912109375 32.5482421875 -13.55712890625Q32.0501953125 -13.623046875 31.5375 -13.623046875Q29.8529296875 -13.623046875 28.74697265625 -12.59033203125Q27.641015625 -11.5576171875 27.641015625 -9.9462890625V0.0ZM42.2009765625 0.205078125Q39.69609375 0.205078125 38.1580078125 -1.36962890625Q36.619921875 -2.9443359375 36.619921875 -5.9765625V-16.376953125H39.842578125V-6.3720703125Q39.842578125 -4.599609375 40.77275390625 -3.603515625Q41.7029296875 -2.607421875 43.299609375 -2.607421875Q44.940234375 -2.607421875 46.02421875 -3.66943359375Q47.108203125 -4.7314453125 47.108203125 -6.6796875V-16.376953125H50.3455078125V0.0H47.2546875L47.2400390625 -3.1787109375Q46.463671875 -1.3916015625 45.18193359375 -0.59326171875Q43.9001953125 0.205078125 42.2009765625 0.205078125ZM62.122265625000004 6.474609375Q59.280468750000004 6.474609375 57.566601562500004 5.4345703125Q55.852734375000004 4.39453125 55.164257812500004 2.9150390625L57.859570312500004 1.640625Q58.152539062500004 2.109375 58.643261718750004 2.62939453125Q59.133984375000004 3.1494140625 59.961621093750004 3.515625Q60.789257812500004 3.8818359375 62.107617187500004 3.8818359375Q63.967968750000004 3.8818359375 65.13984375000001 2.99560546875Q66.31171875000001 2.109375 66.31171875000001 0.2197265625V-2.9736328125H66.03339843750001Q65.74042968750001 -2.431640625 65.22041015625001 -1.8017578125Q64.70039062500001 -1.171875 63.77021484375001 -0.71044921875Q62.840039062500004 -0.2490234375 61.345898437500004 -0.2490234375Q59.412304687500004 -0.2490234375 57.866894531250004 -1.1572265625Q56.321484375000004 -2.0654296875 55.413281250000004 -3.84521484375Q54.505078125000004 -5.625 54.505078125000004 -8.2470703125Q54.505078125000004 -10.8544921875 55.405957031250004 -12.72216796875Q56.306835937500004 -14.58984375 57.859570312500004 -15.5859375Q59.412304687500004 -16.58203125 61.389843750000004 -16.58203125Q62.898632812500004 -16.58203125 63.84345703125001 -16.07666015625Q64.78828125000001 -15.5712890625 65.32294921875001 -14.8974609375Q65.85761718750001 -14.2236328125 66.13593750000001 -13.7109375H66.37031250000001V-16.376953125H69.51972656250001V0.234375Q69.51972656250001 2.3876953125 68.53828125000001 3.7646484375Q67.55683593750001 5.1416015625 65.88691406250001 5.80810546875Q64.21699218750001 6.474609375 62.122265625000004 6.474609375ZM62.092968750000004 -2.9296875Q64.14375000000001 -2.9296875 65.23505859375001 -4.3505859375Q66.32636718750001 -5.771484375 66.32636718750001 -8.291015625Q66.32636718750001 -10.751953125 65.24970703125001 -12.29736328125Q64.17304687500001 -13.8427734375 62.092968750000004 -13.8427734375Q60.672070312500004 -13.8427734375 59.712597656250004 -13.10302734375Q58.753125000000004 -12.36328125 58.277050781250004 -11.11083984375Q57.800976562500004 -9.8583984375 57.800976562500004 -8.291015625Q57.800976562500004 -5.888671875 58.892285156250004 -4.4091796875Q59.983593750000004 -2.9296875 62.092968750000004 -2.9296875ZM90.626953125 0.3662109375Q86.9501953125 0.3662109375 84.767578125 -1.35498046875Q82.5849609375 -3.076171875 82.4384765625 -6.064453125H85.79296875Q85.939453125 -4.27734375 87.3310546875 -3.42041015625Q88.72265625 -2.5634765625 90.6123046875 -2.5634765625Q92.6923828125 -2.5634765625 94.0546875 -3.5302734375Q95.4169921875 -4.4970703125 95.4169921875 -6.0791015625Q95.4169921875 -7.5 94.22314453125 -8.19580078125Q93.029296875 -8.8916015625 91.271484375 -9.3603515625L88.72265625 -10.0634765625Q86.0419921875 -10.78125 84.54052734375 -12.1875Q83.0390625 -13.59375 83.0390625 -15.8349609375Q83.0390625 -17.724609375 84.05712890625 -19.13818359375Q85.0751953125 -20.5517578125 86.82568359375 -21.33544921875Q88.576171875 -22.119140625 90.7734375 -22.119140625Q93.0146484375 -22.119140625 94.72119140625 -21.33544921875Q96.427734375 -20.5517578125 97.40185546875 -19.18212890625Q98.3759765625 -17.8125 98.419921875 -16.083984375H95.16796875Q95.0068359375 -17.578125 93.78369140625 -18.3984375Q92.560546875 -19.21875 90.7001953125 -19.21875Q88.72265625 -19.21875 87.55078125 -18.31787109375Q86.37890625 -17.4169921875 86.37890625 -16.025390625Q86.37890625 -14.9853515625 87.0087890625 -14.34814453125Q87.638671875 -13.7109375 88.55419921875 -13.33740234375Q89.4697265625 -12.9638671875 90.3046875 -12.744140625L92.4287109375 -12.1875Q93.46875 -11.923828125 94.57470703125 -11.47705078125Q95.6806640625 -11.0302734375 96.6181640625 -10.31982421875Q97.5556640625 -9.609375 98.13427734375 -8.56201171875Q98.712890625 -7.5146484375 98.712890625 -6.03515625Q98.712890625 -4.189453125 97.7607421875 -2.7392578125Q96.80859375 -1.2890625 94.99951171875 -0.46142578125Q93.1904296875 0.3662109375 90.626953125 0.3662109375ZM107.6185546875 0.3662109375Q106.051171875 0.3662109375 104.79873046875 -0.21240234375Q103.5462890625 -0.791015625 102.8138671875 -1.904296875Q102.0814453125 -3.017578125 102.0814453125 -4.62890625Q102.0814453125 -6.0205078125 102.6234375 -6.92138671875Q103.1654296875 -7.822265625 104.0736328125 -8.34228515625Q104.9818359375 -8.8623046875 106.10244140625 -9.1259765625Q107.223046875 -9.3896484375 108.3802734375 -9.521484375Q110.5482421875 -9.7705078125 111.5296875 -9.95361328125Q112.5111328125 -10.13671875 112.5111328125 -11.0009765625V-11.0888671875Q112.5111328125 -12.451171875 111.71279296875 -13.20556640625Q110.914453125 -13.9599609375 109.3763671875 -13.9599609375Q107.7650390625 -13.9599609375 106.8421875 -13.2568359375Q105.9193359375 -12.5537109375 105.582421875 -11.71875L102.5501953125 -12.509765625Q103.1068359375 -13.974609375 104.146875 -14.8681640625Q105.1869140625 -15.76171875 106.52724609375 -16.171875Q107.867578125 -16.58203125 109.332421875 -16.58203125Q110.3138671875 -16.58203125 111.4271484375 -16.34765625Q112.5404296875 -16.11328125 113.521875 -15.50537109375Q114.5033203125 -14.8974609375 115.1185546875 -13.76953125Q115.7337890625 -12.6416015625 115.7337890625 -10.869140625V0.0H112.613671875V-2.2412109375H112.4525390625Q111.969140625 -1.2744140625 110.78994140625 -0.4541015625Q109.6107421875 0.3662109375 107.6185546875 0.3662109375ZM108.336328125 -2.2265625Q109.6400390625 -2.2265625 110.5775390625 -2.74658203125Q111.5150390625 -3.2666015625 112.02041015625 -4.1015625Q112.52578125 -4.9365234375 112.52578125 -5.9033203125V-7.998046875Q112.29140625 -7.763671875 111.52236328125 -7.59521484375Q110.7533203125 -7.4267578125 109.9037109375 -7.3095703125Q109.0541015625 -7.1923828125 108.5560546875 -7.1337890625Q107.19375 -6.943359375 106.21962890625 -6.39404296875Q105.2455078125 -5.8447265625 105.2455078125 -4.5849609375Q105.2455078125 -3.4130859375 106.11708984375 -2.81982421875Q106.988671875 -2.2265625 108.336328125 -2.2265625ZM128.7849609375 -16.376953125V-13.7548828125H125.12285156249999V0.0H121.90019531249999V-13.7548828125H118.79472656249999V-16.376953125H121.90019531249999V-18.251953125Q121.90019531249999 -19.775390625 122.58134765624999 -20.80078125Q123.26249999999999 -21.826171875 124.36845703124999 -22.3388671875Q125.47441406249999 -22.8515625 126.77812499999999 -22.8515625Q127.74492187499999 -22.8515625 128.44072265625 -22.69775390625Q129.1365234375 -22.5439453125 129.4734375 -22.412109375L128.7263671875 -19.8046875Q128.4919921875 -19.86328125 128.1404296875 -19.951171875Q127.78886718749999 -20.0390625 127.29082031249999 -20.0390625Q126.13359374999999 -20.0390625 125.62822265624999 -19.4677734375Q125.12285156249999 -18.896484375 125.12285156249999 -17.8125V-16.376953125ZM138.90644531249998 0.3369140625Q136.48945312499998 0.3369140625 134.73164062499998 -0.703125Q132.97382812499998 -1.7431640625 132.02900390624998 -3.6328125Q131.08417968749998 -5.5224609375 131.08417968749998 -8.0712890625Q131.08417968749998 -10.5908203125 132.01435546874998 -12.509765625Q132.94453124999998 -14.4287109375 134.64374999999998 -15.50537109375Q136.34296874999998 -16.58203125 138.62812499999998 -16.58203125Q140.48847656249998 -16.58203125 142.16572265624998 -15.75439453125Q143.84296874999998 -14.9267578125 144.89033203124998 -13.11767578125Q145.93769531249998 -11.30859375 145.93769531249998 -8.349609375V-7.20703125H134.32148437499998Q134.40937499999998 -4.833984375 135.66914062499998 -3.58154296875Q136.92890624999998 -2.3291015625 138.93574218749998 -2.3291015625Q140.28339843749998 -2.3291015625 141.25751953124998 -2.9150390625Q142.23164062499998 -3.5009765625 142.65644531249998 -4.6435546875L145.68867187499998 -3.92578125Q145.10273437499998 -2.0068359375 143.31562499999998 -0.8349609375Q141.52851562499998 0.3369140625 138.90644531249998 0.3369140625ZM134.33613281249998 -9.609375H142.74433593749998Q142.56855468749998 -11.54296875 141.53583984374998 -12.7294921875Q140.50312499999998 -13.916015625 138.64277343749998 -13.916015625Q136.70917968749998 -13.916015625 135.58857421874998 -12.64892578125Q134.46796874999998 -11.3818359375 134.33613281249998 -9.609375ZM157.06992187499998 -16.376953125V-13.7548828125H153.80332031249998V-4.423828125Q153.80332031249998 -3.4423828125 154.22080078124998 -2.98095703125Q154.63828124999998 -2.51953125 155.59042968749998 -2.51953125Q155.85410156249998 -2.51953125 156.25693359374998 -2.578125Q156.65976562499998 -2.63671875 156.95273437499998 -2.6953125L157.52402343749998 -0.1171875Q157.01132812499998 0.05859375 156.41806640624998 0.13916015625Q155.82480468749998 0.2197265625 155.26816406249998 0.2197265625Q153.04160156249998 0.2197265625 151.81113281249998 -0.93017578125Q150.58066406249998 -2.080078125 150.58066406249998 -4.16015625V-13.7548828125H148.19296874999998V-16.376953125H150.58066406249998V-20.2734375H153.80332031249998V-16.376953125ZM161.27343749999997 5.888671875 162.06445312499997 3.2666015625 162.43066406249997 3.3544921875Q163.67578124999997 3.69140625 164.54736328124997 3.27392578125Q165.41894531249997 2.8564453125 165.87304687499997 1.2744140625L166.22460937499997 0.0732421875L159.99902343749997 -16.376953125H163.48535156249997L166.72265624999997 -7.0751953125Q167.08886718749997 -5.9912109375 167.36718749999997 -4.9365234375Q167.64550781249997 -3.8818359375 167.90917968749997 -2.8271484375Q168.18749999999997 -3.8818359375 168.48046874999997 -4.94384765625Q168.77343749999997 -6.005859375 169.15429687499997 -7.0751953125L172.45019531249997 -16.376953125H175.90722656249997L168.78808593749997 2.2705078125Q168.04101562499997 4.2333984375 166.77392578124997 5.23681640625Q165.50683593749997 6.240234375 163.52929687499997 6.240234375Q162.76757812499997 6.240234375 162.17431640624997 6.13037109375Q161.58105468749997 6.0205078125 161.27343749999997 5.888671875ZM191.53593749999996 -21.826171875V0.0H188.19609374999996V-21.826171875ZM199.94355468749995 -9.697265625V0.0H196.72089843749995V-16.376953125H199.79707031249995L199.81171874999995 -13.2275390625Q200.57343749999995 -14.9560546875 201.85517578124995 -15.76904296875Q203.13691406249995 -16.58203125 204.86542968749995 -16.58203125Q207.37031249999995 -16.58203125 208.90107421874995 -15.00732421875Q210.43183593749995 -13.4326171875 210.43183593749995 -10.400390625V0.0H207.20917968749995V-10.0048828125Q207.20917968749995 -11.77734375 206.28632812499995 -12.7734375Q205.36347656249995 -13.76953125 203.75214843749995 -13.76953125Q202.11152343749995 -13.76953125 201.02753906249995 -12.70751953125Q199.94355468749995 -11.6455078125 199.94355468749995 -9.697265625ZM222.36972656249995 -16.376953125V-13.7548828125H219.10312499999995V-4.423828125Q219.10312499999995 -3.4423828125 219.52060546874995 -2.98095703125Q219.93808593749995 -2.51953125 220.89023437499995 -2.51953125Q221.15390624999995 -2.51953125 221.55673828124995 -2.578125Q221.95957031249995 -2.63671875 222.25253906249995 -2.6953125L222.82382812499995 -0.1171875Q222.31113281249995 0.05859375 221.71787109374995 0.13916015625Q221.12460937499995 0.2197265625 220.56796874999995 0.2197265625Q218.34140624999995 0.2197265625 217.11093749999995 -0.93017578125Q215.88046874999995 -2.080078125 215.88046874999995 -4.16015625V-13.7548828125H213.49277343749995V-16.376953125H215.88046874999995V-20.2734375H219.10312499999995V-16.376953125ZM232.94531249999994 0.3369140625Q230.52832031249994 0.3369140625 228.77050781249994 -0.703125Q227.01269531249994 -1.7431640625 226.06787109374994 -3.6328125Q225.12304687499994 -5.5224609375 225.12304687499994 -8.0712890625Q225.12304687499994 -10.5908203125 226.05322265624994 -12.509765625Q226.98339843749994 -14.4287109375 228.68261718749994 -15.50537109375Q230.38183593749994 -16.58203125 232.66699218749994 -16.58203125Q234.52734374999994 -16.58203125 236.20458984374994 -15.75439453125Q237.88183593749994 -14.9267578125 238.92919921874994 -13.11767578125Q239.97656249999994 -11.30859375 239.97656249999994 -8.349609375V-7.20703125H228.36035156249994Q228.44824218749994 -4.833984375 229.70800781249994 -3.58154296875Q230.96777343749994 -2.3291015625 232.97460937499994 -2.3291015625Q234.32226562499994 -2.3291015625 235.29638671874994 -2.9150390625Q236.27050781249994 -3.5009765625 236.69531249999994 -4.6435546875L239.72753906249994 -3.92578125Q239.14160156249994 -2.0068359375 237.35449218749994 -0.8349609375Q235.56738281249994 0.3369140625 232.94531249999994 0.3369140625ZM228.37499999999994 -9.609375H236.78320312499994Q236.60742187499994 -11.54296875 235.57470703124994 -12.7294921875Q234.54199218749994 -13.916015625 232.68164062499994 -13.916015625Q230.74804687499994 -13.916015625 229.62744140624994 -12.64892578125Q228.50683593749994 -11.3818359375 228.37499999999994 -9.609375ZM247.32949218749994 -21.826171875V0.0H244.10683593749994V-21.826171875ZM255.48808593749993 -21.826171875V0.0H252.26542968749993V-21.826171875ZM260.42402343749995 0.0V-16.376953125H263.64667968749995V0.0ZM262.04999999999995 -18.8818359375Q261.21503906249995 -18.8818359375 260.62177734374995 -19.4384765625Q260.02851562499995 -19.9951171875 260.02851562499995 -20.7861328125Q260.02851562499995 -21.591796875 260.62177734374995 -22.1484375Q261.21503906249995 -22.705078125 262.04999999999995 -22.705078125Q262.88496093749995 -22.705078125 263.48554687499995 -22.1484375Q264.08613281249995 -21.591796875 264.08613281249995 -20.7861328125Q264.08613281249995 -19.9951171875 263.48554687499995 -19.4384765625Q262.88496093749995 -18.8818359375 262.04999999999995 -18.8818359375ZM275.4380859375 6.474609375Q272.5962890625 6.474609375 270.882421875 5.4345703125Q269.1685546875 4.39453125 268.480078125 2.9150390625L271.175390625 1.640625Q271.468359375 2.109375 271.95908203125 2.62939453125Q272.4498046875 3.1494140625 273.27744140625 3.515625Q274.105078125 3.8818359375 275.4234375 3.8818359375Q277.2837890625 3.8818359375 278.4556640625 2.99560546875Q279.6275390625 2.109375 279.6275390625 0.2197265625V-2.9736328125H279.34921875Q279.05625 -2.431640625 278.53623046875 -1.8017578125Q278.0162109375 -1.171875 277.08603515625 -0.71044921875Q276.155859375 -0.2490234375 274.66171875 -0.2490234375Q272.728125 -0.2490234375 271.18271484375 -1.1572265625Q269.6373046875 -2.0654296875 268.7291015625 -3.84521484375Q267.8208984375 -5.625 267.8208984375 -8.2470703125Q267.8208984375 -10.8544921875 268.72177734375 -12.72216796875Q269.62265625 -14.58984375 271.175390625 -15.5859375Q272.728125 -16.58203125 274.7056640625 -16.58203125Q276.214453125 -16.58203125 277.15927734375 -16.07666015625Q278.1041015625 -15.5712890625 278.63876953125 -14.8974609375Q279.1734375 -14.2236328125 279.4517578125 -13.7109375H279.6861328125V-16.376953125H282.835546875V0.234375Q282.835546875 2.3876953125 281.8541015625 3.7646484375Q280.87265625 5.1416015625 279.202734375 5.80810546875Q277.5328125 6.474609375 275.4380859375 6.474609375ZM275.4087890625 -2.9296875Q277.4595703125 -2.9296875 278.55087890625 -4.3505859375Q279.6421875 -5.771484375 279.6421875 -8.291015625Q279.6421875 -10.751953125 278.56552734375 -12.29736328125Q277.4888671875 -13.8427734375 275.4087890625 -13.8427734375Q273.987890625 -13.8427734375 273.02841796875 -13.10302734375Q272.0689453125 -12.36328125 271.59287109375 -11.11083984375Q271.116796875 -9.8583984375 271.116796875 -8.291015625Q271.116796875 -5.888671875 272.20810546875 -4.4091796875Q273.2994140625 -2.9296875 275.4087890625 -2.9296875ZM294.83203125 0.3369140625Q292.4150390625 0.3369140625 290.6572265625 -0.703125Q288.8994140625 -1.7431640625 287.95458984375 -3.6328125Q287.009765625 -5.5224609375 287.009765625 -8.0712890625Q287.009765625 -10.5908203125 287.93994140625 -12.509765625Q288.8701171875 -14.4287109375 290.5693359375 -15.50537109375Q292.2685546875 -16.58203125 294.5537109375 -16.58203125Q296.4140625 -16.58203125 298.09130859375 -15.75439453125Q299.7685546875 -14.9267578125 300.81591796875 -13.11767578125Q301.86328125 -11.30859375 301.86328125 -8.349609375V-7.20703125H290.2470703125Q290.3349609375 -4.833984375 291.5947265625 -3.58154296875Q292.8544921875 -2.3291015625 294.861328125 -2.3291015625Q296.208984375 -2.3291015625 297.18310546875 -2.9150390625Q298.1572265625 -3.5009765625 298.58203125 -4.6435546875L301.6142578125 -3.92578125Q301.0283203125 -2.0068359375 299.2412109375 -0.8349609375Q297.4541015625 0.3369140625 294.83203125 0.3369140625ZM290.26171875 -9.609375H298.669921875Q298.494140625 -11.54296875 297.46142578125 -12.7294921875Q296.4287109375 -13.916015625 294.568359375 -13.916015625Q292.634765625 -13.916015625 291.51416015625 -12.64892578125Q290.3935546875 -11.3818359375 290.26171875 -9.609375ZM309.2162109375 -9.697265625V0.0H305.9935546875V-16.376953125H309.0697265625L309.084375 -13.2275390625Q309.84609375 -14.9560546875 311.12783203125 -15.76904296875Q312.4095703125 -16.58203125 314.1380859375 -16.58203125Q316.64296875 -16.58203125 318.17373046875 -15.00732421875Q319.7044921875 -13.4326171875 319.7044921875 -10.400390625V0.0H316.4818359375V-10.0048828125Q316.4818359375 -11.77734375 315.558984375 -12.7734375Q314.6361328125 -13.76953125 313.0248046875 -13.76953125Q311.3841796875 -13.76953125 310.3001953125 -12.70751953125Q309.2162109375 -11.6455078125 309.2162109375 -9.697265625ZM331.52519531250005 0.3369140625Q329.21074218750005 0.3369140625 327.49687500000005 -0.7177734375Q325.78300781250005 -1.7724609375 324.83085937500005 -3.66943359375Q323.87871093750005 -5.56640625 323.87871093750005 -8.1005859375Q323.87871093750005 -10.6494140625 324.83085937500005 -12.56103515625Q325.78300781250005 -14.47265625 327.49687500000005 -15.52734375Q329.21074218750005 -16.58203125 331.52519531250005 -16.58203125Q334.07402343750005 -16.58203125 335.92705078125005 -15.30029296875Q337.78007812500005 -14.0185546875 338.38066406250005 -11.748046875L335.31914062500005 -11.015625Q334.98222656250005 -12.2900390625 334.00810546875005 -13.07373046875Q333.03398437500005 -13.857421875 331.53984375000005 -13.857421875Q330.06035156250005 -13.857421875 329.08623046875005 -13.0810546875Q328.11210937500005 -12.3046875 327.63603515625005 -10.99365234375Q327.15996093750005 -9.6826171875 327.15996093750005 -8.1005859375Q327.15996093750005 -6.533203125 327.63603515625005 -5.23681640625Q328.11210937500005 -3.9404296875 329.08623046875005 -3.1640625Q330.06035156250005 -2.3876953125 331.53984375000005 -2.3876953125Q333.06328125000005 -2.3876953125 334.05937500000005 -3.20068359375Q335.05546875000005 -4.013671875 335.37773437500005 -5.3466796875L338.42460937500005 -4.6142578125Q337.82402343750005 -2.2998046875 335.96367187500005 -0.9814453125Q334.10332031250005 0.3369140625 331.52519531250005 0.3369140625ZM349.61542968750007 0.3369140625Q347.19843750000007 0.3369140625 345.44062500000007 -0.703125Q343.68281250000007 -1.7431640625 342.73798828125007 -3.6328125Q341.79316406250007 -5.5224609375 341.79316406250007 -8.0712890625Q341.79316406250007 -10.5908203125 342.72333984375007 -12.509765625Q343.65351562500007 -14.4287109375 345.35273437500007 -15.50537109375Q347.05195312500007 -16.58203125 349.33710937500007 -16.58203125Q351.19746093750007 -16.58203125 352.87470703125007 -15.75439453125Q354.55195312500007 -14.9267578125 355.59931640625007 -13.11767578125Q356.64667968750007 -11.30859375 356.64667968750007 -8.349609375V-7.20703125H345.03046875000007Q345.11835937500007 -4.833984375 346.37812500000007 -3.58154296875Q347.63789062500007 -2.3291015625 349.64472656250007 -2.3291015625Q350.99238281250007 -2.3291015625 351.96650390625007 -2.9150390625Q352.94062500000007 -3.5009765625 353.36542968750007 -4.6435546875L356.39765625000007 -3.92578125Q355.81171875000007 -2.0068359375 354.02460937500007 -0.8349609375Q352.23750000000007 0.3369140625 349.61542968750007 0.3369140625ZM345.04511718750007 -9.609375H353.45332031250007Q353.27753906250007 -11.54296875 352.24482421875007 -12.7294921875Q351.21210937500007 -13.916015625 349.35175781250007 -13.916015625Q347.41816406250007 -13.916015625 346.29755859375007 -12.64892578125Q345.17695312500007 -11.3818359375 345.04511718750007 -9.609375Z" fill="#526071"/><path transform="translate(80.00 500.00)" d="M2.490234375 0.0V-24.736328125H18.328125V-21.0009765625H6.9228515625V-13.580078125H17.2158203125V-9.89453125H6.9228515625V0.0ZM22.279296875 0.0V-18.560546875H26.595703125V0.0ZM24.4375 -21.18359375Q23.408203125 -21.18359375 22.66943359375 -21.87255859375Q21.9306640625 -22.5615234375 21.9306640625 -23.5576171875Q21.9306640625 -24.537109375 22.66943359375 -25.22607421875Q23.408203125 -25.9150390625 24.4375 -25.9150390625Q25.4833984375 -25.9150390625 26.22216796875 -25.22607421875Q26.9609375 -24.537109375 26.9609375 -23.5576171875Q26.9609375 -22.5615234375 26.22216796875 -21.87255859375Q25.4833984375 -21.18359375 24.4375 -21.18359375ZM35.494140625 -10.8740234375V0.0H31.177734375V-18.560546875H35.26171875L35.3115234375 -14.8583984375Q36.9716796875 -18.79296875 41.0556640625 -18.79296875Q43.927734375 -18.79296875 45.66259765625 -16.966796875Q47.3974609375 -15.140625 47.3974609375 -11.8037109375V0.0H43.0810546875V-11.1396484375Q43.0810546875 -12.9990234375 42.1181640625 -14.0615234375Q41.1552734375 -15.1240234375 39.4619140625 -15.1240234375Q37.7353515625 -15.1240234375 36.61474609375 -14.01171875Q35.494140625 -12.8994140625 35.494140625 -10.8740234375ZM58.8193359375 0.33203125Q56.6279296875 0.33203125 54.89306640625 -0.78857421875Q53.158203125 -1.9091796875 52.162109375 -4.05078125Q51.166015625 -6.1923828125 51.166015625 -9.2470703125Q51.166015625 -12.3349609375 52.1787109375 -14.46826171875Q53.19140625 -16.6015625 54.92626953125 -17.697265625Q56.6611328125 -18.79296875 58.802734375 -18.79296875Q60.462890625 -18.79296875 61.51708984375 -18.23681640625Q62.5712890625 -17.6806640625 63.185546875 -16.90869140625Q63.7998046875 -16.13671875 64.1318359375 -15.4892578125H64.314453125V-24.736328125H68.630859375V0.0H64.3974609375V-2.9384765625H64.1318359375Q63.783203125 -2.2744140625 63.15234375 -1.5107421875Q62.521484375 -0.7470703125 61.46728515625 -0.20751953125Q60.4130859375 0.33203125 58.8193359375 0.33203125ZM59.998046875 -3.220703125Q62.1064453125 -3.220703125 63.251953125 -4.88916015625Q64.3974609375 -6.5576171875 64.3974609375 -9.263671875Q64.3974609375 -11.9697265625 63.26025390625 -13.60498046875Q62.123046875 -15.240234375 59.998046875 -15.240234375Q57.806640625 -15.240234375 56.6943359375 -13.546875Q55.58203125 -11.853515625 55.58203125 -9.263671875Q55.58203125 -6.6572265625 56.70263671875 -4.93896484375Q57.8232421875 -3.220703125 59.998046875 -3.220703125ZM90.345703125 -18.560546875V-15.173828125H86.759765625V-5.2294921875Q86.759765625 -4.216796875 87.18310546875 -3.74365234375Q87.6064453125 -3.2705078125 88.6025390625 -3.2705078125Q88.9013671875 -3.2705078125 89.3828125 -3.34521484375Q89.8642578125 -3.419921875 90.1796875 -3.486328125L90.8603515625 -0.1494140625Q90.146484375 0.06640625 89.3994140625 0.15771484375Q88.65234375 0.2490234375 87.9716796875 0.2490234375Q85.298828125 0.2490234375 83.87109375 -1.0791015625Q82.443359375 -2.4072265625 82.443359375 -4.8642578125V-15.173828125H79.8037109375V-18.560546875H82.443359375V-22.9765625H86.759765625V-18.560546875ZM98.1484375 -10.8740234375V0.0H93.83203125V-24.736328125H98.08203125V-15.1240234375Q99.775390625 -18.79296875 103.7099609375 -18.79296875Q106.58203125 -18.79296875 108.3251953125 -16.966796875Q110.068359375 -15.140625 110.068359375 -11.8037109375V0.0H105.7353515625V-11.1396484375Q105.7353515625 -12.9990234375 104.7724609375 -14.0615234375Q103.8095703125 -15.1240234375 102.1162109375 -15.1240234375Q100.3896484375 -15.1240234375 99.26904296875 -14.01171875Q98.1484375 -12.8994140625 98.1484375 -10.8740234375ZM122.8515625 0.3818359375Q120.0458984375 0.3818359375 118.02880859375 -0.796875Q116.01171875 -1.9755859375 114.92431640625 -4.1171875Q113.8369140625 -6.2587890625 113.8369140625 -9.1640625Q113.8369140625 -12.01953125 114.90771484375 -14.18603515625Q115.978515625 -16.3525390625 117.94580078125 -17.57275390625Q119.9130859375 -18.79296875 122.5693359375 -18.79296875Q124.8271484375 -18.79296875 126.76123046875 -17.80517578125Q128.6953125 -16.8173828125 129.8740234375 -14.75048828125Q131.052734375 -12.68359375 131.052734375 -9.4296875V-8.068359375H118.13671875Q118.2197265625 -5.5947265625 119.52294921875 -4.2998046875Q120.826171875 -3.0048828125 122.9013671875 -3.0048828125Q124.3291015625 -3.0048828125 125.35009765625 -3.619140625Q126.37109375 -4.2333984375 126.802734375 -5.412109375L130.7705078125 -4.5986328125Q130.1064453125 -2.357421875 128.02294921875 -0.98779296875Q125.939453125 0.3818359375 122.8515625 0.3818359375ZM118.1533203125 -11.0068359375H126.8525390625Q126.6533203125 -12.9990234375 125.58251953125 -14.20263671875Q124.51171875 -15.40625 122.5859375 -15.40625Q120.6103515625 -15.40625 119.45654296875 -14.13623046875Q118.302734375 -12.8662109375 118.1533203125 -11.0068359375ZM150.34375 0.3818359375Q147.1396484375 0.3818359375 145.05615234375 -0.98779296875Q142.97265625 -2.357421875 142.4912109375 -4.880859375L146.525390625 -5.64453125Q147.255859375 -2.921875 150.4267578125 -2.921875Q152.0205078125 -2.921875 152.95849609375 -3.56103515625Q153.896484375 -4.2001953125 153.896484375 -5.146484375Q153.896484375 -6.7236328125 151.3896484375 -7.271484375L148.21875 -7.9521484375Q143.005859375 -9.0810546875 143.005859375 -13.1484375Q143.005859375 -14.875 143.9521484375 -16.13671875Q144.8984375 -17.3984375 146.58349609375 -18.095703125Q148.2685546875 -18.79296875 150.4931640625 -18.79296875Q153.6474609375 -18.79296875 155.48193359375 -17.4814453125Q157.31640625 -16.169921875 157.880859375 -14.01171875L154.029296875 -13.248046875Q153.697265625 -14.2109375 152.8671875 -14.8916015625Q152.037109375 -15.572265625 150.54296875 -15.572265625Q149.181640625 -15.572265625 148.251953125 -14.96630859375Q147.322265625 -14.3603515625 147.322265625 -13.4140625Q147.322265625 -12.6005859375 147.92822265625 -12.07763671875Q148.5341796875 -11.5546875 149.9619140625 -11.2392578125L153.1162109375 -10.5751953125Q158.3125 -9.462890625 158.3125 -5.5615234375Q158.3125 -3.8017578125 157.2998046875 -2.46533203125Q156.287109375 -1.12890625 154.48583984375 -0.37353515625Q152.6845703125 0.3818359375 150.34375 0.3818359375ZM161.998046875 0.0V-18.560546875H166.314453125V0.0ZM164.15625 -21.18359375Q163.126953125 -21.18359375 162.38818359375 -21.87255859375Q161.6494140625 -22.5615234375 161.6494140625 -23.5576171875Q161.6494140625 -24.537109375 162.38818359375 -25.22607421875Q163.126953125 -25.9150390625 164.15625 -25.9150390625Q165.2021484375 -25.9150390625 165.94091796875 -25.22607421875Q166.6796875 -24.537109375 166.6796875 -23.5576171875Q166.6796875 -22.5615234375 165.94091796875 -21.87255859375Q165.2021484375 -21.18359375 164.15625 -21.18359375ZM178.8984375 7.337890625Q175.544921875 7.337890625 173.51953125 6.109375Q171.494140625 4.880859375 170.796875 3.0380859375L174.44921875 1.7265625Q174.880859375 2.5234375 175.86865234375 3.287109375Q176.8564453125 4.05078125 178.8818359375 4.05078125Q180.890625 4.05078125 182.1025390625 3.11279296875Q183.314453125 2.1748046875 183.314453125 0.1826171875V-3.3203125H182.94921875Q182.6171875 -2.65625 182.0029296875 -1.9423828125Q181.388671875 -1.228515625 180.359375 -0.75537109375Q179.330078125 -0.2822265625 177.7197265625 -0.2822265625Q175.5947265625 -0.2822265625 173.85986328125 -1.28662109375Q172.125 -2.291015625 171.10400390625 -4.2998046875Q170.0830078125 -6.30859375 170.0830078125 -9.330078125Q170.0830078125 -12.3681640625 171.10400390625 -14.48486328125Q172.125 -16.6015625 173.8681640625 -17.697265625Q175.611328125 -18.79296875 177.7529296875 -18.79296875Q179.396484375 -18.79296875 180.458984375 -18.2451171875Q181.521484375 -17.697265625 182.15234375 -16.92529296875Q182.783203125 -16.1533203125 183.115234375 -15.4892578125H183.34765625V-18.560546875H187.5810546875V0.0498046875Q187.5810546875 2.5400390625 186.4521484375 4.150390625Q185.3232421875 5.7607421875 183.3642578125 6.54931640625Q181.4052734375 7.337890625 178.8984375 7.337890625ZM178.931640625 -3.685546875Q181.0400390625 -3.685546875 182.185546875 -5.1962890625Q183.3310546875 -6.70703125 183.3310546875 -9.36328125Q183.3310546875 -12.0029296875 182.2021484375 -13.62158203125Q181.0732421875 -15.240234375 178.931640625 -15.240234375Q176.740234375 -15.240234375 175.61962890625 -13.5634765625Q174.4990234375 -11.88671875 174.4990234375 -9.36328125Q174.4990234375 -6.7900390625 175.6279296875 -5.23779296875Q176.7568359375 -3.685546875 178.931640625 -3.685546875ZM196.4794921875 -10.8740234375V0.0H192.1630859375V-18.560546875H196.2470703125L196.296875 -14.8583984375Q197.95703125 -18.79296875 202.041015625 -18.79296875Q204.9130859375 -18.79296875 206.64794921875 -16.966796875Q208.3828125 -15.140625 208.3828125 -11.8037109375V0.0H204.06640625V-11.1396484375Q204.06640625 -12.9990234375 203.103515625 -14.0615234375Q202.140625 -15.1240234375 200.447265625 -15.1240234375Q198.720703125 -15.1240234375 197.60009765625 -14.01171875Q196.4794921875 -12.8994140625 196.4794921875 -10.8740234375ZM218.14453125 0.3818359375Q216.384765625 0.3818359375 214.9736328125 -0.25732421875Q213.5625 -0.896484375 212.7490234375 -2.1416015625Q211.935546875 -3.38671875 211.935546875 -5.212890625Q211.935546875 -7.3046875 212.95654296875 -8.45849609375Q213.9775390625 -9.6123046875 215.59619140625 -10.13525390625Q217.21484375 -10.658203125 219.0078125 -10.8408203125Q221.431640625 -11.1064453125 222.5107421875 -11.33056640625Q223.58984375 -11.5546875 223.58984375 -12.517578125V-12.6005859375Q223.58984375 -13.9619140625 222.759765625 -14.71728515625Q221.9296875 -15.47265625 220.3525390625 -15.47265625Q218.7255859375 -15.47265625 217.7626953125 -14.7587890625Q216.7998046875 -14.044921875 216.4677734375 -13.1318359375L212.466796875 -13.9453125Q213.2802734375 -16.40234375 215.41357421875 -17.59765625Q217.546875 -18.79296875 220.3359375 -18.79296875Q221.6474609375 -18.79296875 222.98388671875 -18.48583984375Q224.3203125 -18.1787109375 225.4326171875 -17.45654296875Q226.544921875 -16.734375 227.2255859375 -15.49755859375Q227.90625 -14.2607421875 227.90625 -12.4013671875V0.0H223.7724609375V-2.556640625H223.6064453125Q222.9921875 -1.361328125 221.6474609375 -0.48974609375Q220.302734375 0.3818359375 218.14453125 0.3818359375ZM219.2568359375 -2.822265625Q221.2490234375 -2.822265625 222.43603515625 -3.9677734375Q223.623046875 -5.11328125 223.623046875 -6.6572265625V-8.8486328125Q223.32421875 -8.6162109375 222.560546875 -8.44189453125Q221.796875 -8.267578125 220.94189453125 -8.14306640625Q220.0869140625 -8.0185546875 219.5224609375 -7.935546875Q218.0615234375 -7.736328125 217.09033203125 -7.138671875Q216.119140625 -6.541015625 216.119140625 -5.2626953125Q216.119140625 -4.0673828125 216.9990234375 -3.44482421875Q217.87890625 -2.822265625 219.2568359375 -2.822265625ZM236.8046875 -24.736328125V0.0H232.48828125V-24.736328125ZM244.5078125 0.2822265625Q243.3955078125 0.2822265625 242.62353515625 -0.4814453125Q241.8515625 -1.2451171875 241.8515625 -2.3740234375Q241.8515625 -3.486328125 242.62353515625 -4.25Q243.3955078125 -5.013671875 244.5078125 -5.013671875Q245.63671875 -5.013671875 246.40869140625 -4.25Q247.1806640625 -3.486328125 247.1806640625 -2.3740234375Q247.1806640625 -1.2451171875 246.40869140625 -0.4814453125Q245.63671875 0.2822265625 244.5078125 0.2822265625Z" fill="#0B1220"/><path transform="translate(341.94 500.00)" d="M2.490234375 0.0V-24.736328125H11.7373046875Q14.576171875 -24.736328125 16.5185546875 -23.673828125Q18.4609375 -22.611328125 19.45703125 -20.76025390625Q20.453125 -18.9091796875 20.453125 -16.5517578125Q20.453125 -14.177734375 19.44873046875 -12.32666015625Q18.4443359375 -10.4755859375 16.4853515625 -9.42138671875Q14.5263671875 -8.3671875 11.6708984375 -8.3671875H6.9228515625V0.0ZM6.9228515625 -12.01953125H11.08984375Q13.5966796875 -12.01953125 14.7587890625 -13.2978515625Q15.9208984375 -14.576171875 15.9208984375 -16.5517578125Q15.9208984375 -18.52734375 14.7587890625 -19.7724609375Q13.5966796875 -21.017578125 11.056640625 -21.017578125H6.9228515625ZM24.2216796875 0.0V-18.560546875H28.4052734375V-15.4560546875H28.6044921875Q29.1025390625 -17.06640625 30.34765625 -17.93798828125Q31.5927734375 -18.8095703125 33.1865234375 -18.8095703125Q34.0166015625 -18.8095703125 34.763671875 -18.693359375V-14.7255859375Q34.498046875 -14.7919921875 33.900390625 -14.86669921875Q33.302734375 -14.94140625 32.7216796875 -14.94140625Q30.912109375 -14.94140625 29.72509765625 -13.82080078125Q28.5380859375 -12.7001953125 28.5380859375 -10.923828125V0.0ZM45.0234375 0.3818359375Q42.3173828125 0.3818359375 40.3251953125 -0.82177734375Q38.3330078125 -2.025390625 37.24560546875 -4.17529296875Q36.158203125 -6.3251953125 36.158203125 -9.1806640625Q36.158203125 -12.0693359375 37.24560546875 -14.23583984375Q38.3330078125 -16.40234375 40.3251953125 -17.59765625Q42.3173828125 -18.79296875 45.0234375 -18.79296875Q47.7294921875 -18.79296875 49.7216796875 -17.59765625Q51.7138671875 -16.40234375 52.8095703125 -14.23583984375Q53.9052734375 -12.0693359375 53.9052734375 -9.1806640625Q53.9052734375 -6.3251953125 52.8095703125 -4.17529296875Q51.7138671875 -2.025390625 49.7216796875 -0.82177734375Q47.7294921875 0.3818359375 45.0234375 0.3818359375ZM45.0234375 -3.12109375Q46.5341796875 -3.12109375 47.5302734375 -3.9345703125Q48.5263671875 -4.748046875 49.0244140625 -6.1259765625Q49.5224609375 -7.50390625 49.5224609375 -9.197265625Q49.5224609375 -10.9072265625 49.0244140625 -12.28515625Q48.5263671875 -13.6630859375 47.5302734375 -14.4765625Q46.5341796875 -15.2900390625 45.0234375 -15.2900390625Q43.529296875 -15.2900390625 42.533203125 -14.4765625Q41.537109375 -13.6630859375 41.04736328125 -12.28515625Q40.5576171875 -10.9072265625 40.5576171875 -9.197265625Q40.5576171875 -7.50390625 41.04736328125 -6.1259765625Q41.537109375 -4.748046875 42.533203125 -3.9345703125Q43.529296875 -3.12109375 45.0234375 -3.12109375ZM66.2568359375 -18.560546875V-15.173828125H62.6708984375V-5.2294921875Q62.6708984375 -4.216796875 63.09423828125 -3.74365234375Q63.517578125 -3.2705078125 64.513671875 -3.2705078125Q64.8125 -3.2705078125 65.2939453125 -3.34521484375Q65.775390625 -3.419921875 66.0908203125 -3.486328125L66.771484375 -0.1494140625Q66.0576171875 0.06640625 65.310546875 0.15771484375Q64.5634765625 0.2490234375 63.8828125 0.2490234375Q61.2099609375 0.2490234375 59.7822265625 -1.0791015625Q58.3544921875 -2.4072265625 58.3544921875 -4.8642578125V-15.173828125H55.71484375V-18.560546875H58.3544921875V-22.9765625H62.6708984375V-18.560546875ZM77.5458984375 0.3818359375Q74.740234375 0.3818359375 72.72314453125 -0.796875Q70.7060546875 -1.9755859375 69.61865234375 -4.1171875Q68.53125 -6.2587890625 68.53125 -9.1640625Q68.53125 -12.01953125 69.60205078125 -14.18603515625Q70.6728515625 -16.3525390625 72.64013671875 -17.57275390625Q74.607421875 -18.79296875 77.263671875 -18.79296875Q79.521484375 -18.79296875 81.45556640625 -17.80517578125Q83.3896484375 -16.8173828125 84.568359375 -14.75048828125Q85.7470703125 -12.68359375 85.7470703125 -9.4296875V-8.068359375H72.8310546875Q72.9140625 -5.5947265625 74.21728515625 -4.2998046875Q75.5205078125 -3.0048828125 77.595703125 -3.0048828125Q79.0234375 -3.0048828125 80.04443359375 -3.619140625Q81.0654296875 -4.2333984375 81.4970703125 -5.412109375L85.46484375 -4.5986328125Q84.80078125 -2.357421875 82.71728515625 -0.98779296875Q80.6337890625 0.3818359375 77.5458984375 0.3818359375ZM72.84765625 -11.0068359375H81.546875Q81.34765625 -12.9990234375 80.27685546875 -14.20263671875Q79.2060546875 -15.40625 77.2802734375 -15.40625Q75.3046875 -15.40625 74.15087890625 -14.13623046875Q72.9970703125 -12.8662109375 72.84765625 -11.0068359375ZM97.5009765625 0.3818359375Q94.794921875 0.3818359375 92.802734375 -0.82177734375Q90.810546875 -2.025390625 89.72314453125 -4.17529296875Q88.6357421875 -6.3251953125 88.6357421875 -9.1806640625Q88.6357421875 -12.0693359375 89.72314453125 -14.23583984375Q90.810546875 -16.40234375 92.802734375 -17.59765625Q94.794921875 -18.79296875 97.5009765625 -18.79296875Q100.60546875 -18.79296875 102.75537109375 -17.24072265625Q104.9052734375 -15.6884765625 105.5029296875 -12.9658203125L101.46875 -12.119140625Q101.1201171875 -13.5634765625 100.107421875 -14.4267578125Q99.0947265625 -15.2900390625 97.5341796875 -15.2900390625Q95.2763671875 -15.2900390625 94.15576171875 -13.546875Q93.03515625 -11.8037109375 93.03515625 -9.197265625Q93.03515625 -7.4873046875 93.533203125 -6.109375Q94.03125 -4.7314453125 95.02734375 -3.92626953125Q96.0234375 -3.12109375 97.5341796875 -3.12109375Q99.1279296875 -3.12109375 100.14892578125 -4.02587890625Q101.169921875 -4.9306640625 101.5185546875 -6.4248046875L105.552734375 -5.578125Q104.955078125 -2.8056640625 102.796875 -1.2119140625Q100.638671875 0.3818359375 97.5009765625 0.3818359375ZM117.837890625 -18.560546875V-15.173828125H114.251953125V-5.2294921875Q114.251953125 -4.216796875 114.67529296875 -3.74365234375Q115.0986328125 -3.2705078125 116.0947265625 -3.2705078125Q116.3935546875 -3.2705078125 116.875 -3.34521484375Q117.3564453125 -3.419921875 117.671875 -3.486328125L118.3525390625 -0.1494140625Q117.638671875 0.06640625 116.8916015625 0.15771484375Q116.14453125 0.2490234375 115.4638671875 0.2490234375Q112.791015625 0.2490234375 111.36328125 -1.0791015625Q109.935546875 -2.4072265625 109.935546875 -4.8642578125V-15.173828125H107.2958984375V-18.560546875H109.935546875V-22.9765625H114.251953125V-18.560546875ZM138.4072265625 -18.560546875V-15.173828125H134.8212890625V-5.2294921875Q134.8212890625 -4.216796875 135.24462890625 -3.74365234375Q135.66796875 -3.2705078125 136.6640625 -3.2705078125Q136.962890625 -3.2705078125 137.4443359375 -3.34521484375Q137.92578125 -3.419921875 138.2412109375 -3.486328125L138.921875 -0.1494140625Q138.2080078125 0.06640625 137.4609375 0.15771484375Q136.7138671875 0.2490234375 136.033203125 0.2490234375Q133.3603515625 0.2490234375 131.9326171875 -1.0791015625Q130.5048828125 -2.4072265625 130.5048828125 -4.8642578125V-15.173828125H127.865234375V-18.560546875H130.5048828125V-22.9765625H134.8212890625V-18.560546875ZM146.2099609375 -10.8740234375V0.0H141.8935546875V-24.736328125H146.1435546875V-15.1240234375Q147.8369140625 -18.79296875 151.771484375 -18.79296875Q154.6435546875 -18.79296875 156.38671875 -16.966796875Q158.1298828125 -15.140625 158.1298828125 -11.8037109375V0.0H153.796875V-11.1396484375Q153.796875 -12.9990234375 152.833984375 -14.0615234375Q151.87109375 -15.1240234375 150.177734375 -15.1240234375Q148.451171875 -15.1240234375 147.33056640625 -14.01171875Q146.2099609375 -12.8994140625 146.2099609375 -10.8740234375ZM170.9130859375 0.3818359375Q168.107421875 0.3818359375 166.09033203125 -0.796875Q164.0732421875 -1.9755859375 162.98583984375 -4.1171875Q161.8984375 -6.2587890625 161.8984375 -9.1640625Q161.8984375 -12.01953125 162.96923828125 -14.18603515625Q164.0400390625 -16.3525390625 166.00732421875 -17.57275390625Q167.974609375 -18.79296875 170.630859375 -18.79296875Q172.888671875 -18.79296875 174.82275390625 -17.80517578125Q176.7568359375 -16.8173828125 177.935546875 -14.75048828125Q179.1142578125 -12.68359375 179.1142578125 -9.4296875V-8.068359375H166.1982421875Q166.28125 -5.5947265625 167.58447265625 -4.2998046875Q168.8876953125 -3.0048828125 170.962890625 -3.0048828125Q172.390625 -3.0048828125 173.41162109375 -3.619140625Q174.4326171875 -4.2333984375 174.8642578125 -5.412109375L178.83203125 -4.5986328125Q178.16796875 -2.357421875 176.08447265625 -0.98779296875Q174.0009765625 0.3818359375 170.9130859375 0.3818359375ZM166.21484375 -11.0068359375H174.9140625Q174.71484375 -12.9990234375 173.64404296875 -14.20263671875Q172.5732421875 -15.40625 170.6474609375 -15.40625Q168.671875 -15.40625 167.51806640625 -14.13623046875Q166.3642578125 -12.8662109375 166.21484375 -11.0068359375ZM191.3828125 6.939453125V-18.560546875H195.599609375V-15.4892578125H195.8818359375Q196.197265625 -16.13671875 196.8115234375 -16.90869140625Q197.42578125 -17.6806640625 198.48828125 -18.23681640625Q199.55078125 -18.79296875 201.1943359375 -18.79296875Q203.3359375 -18.79296875 205.07080078125 -17.697265625Q206.8056640625 -16.6015625 207.82666015625 -14.46826171875Q208.84765625 -12.3349609375 208.84765625 -9.2470703125Q208.84765625 -6.1923828125 207.84326171875 -4.05078125Q206.8388671875 -1.9091796875 205.1123046875 -0.78857421875Q203.3857421875 0.33203125 201.177734375 0.33203125Q199.583984375 0.33203125 198.52978515625 -0.20751953125Q197.4755859375 -0.7470703125 196.8447265625 -1.5107421875Q196.2138671875 -2.2744140625 195.8818359375 -2.9384765625H195.69921875V6.939453125ZM200.015625 -3.220703125Q202.173828125 -3.220703125 203.29443359375 -4.93896484375Q204.4150390625 -6.6572265625 204.4150390625 -9.263671875Q204.4150390625 -11.853515625 203.31103515625 -13.546875Q202.20703125 -15.240234375 200.015625 -15.240234375Q197.8740234375 -15.240234375 196.7451171875 -13.60498046875Q195.6162109375 -11.9697265625 195.6162109375 -9.263671875Q195.6162109375 -6.5576171875 196.76171875 -4.88916015625Q197.9072265625 -3.220703125 200.015625 -3.220703125ZM218.111328125 0.3818359375Q216.3515625 0.3818359375 214.9404296875 -0.25732421875Q213.529296875 -0.896484375 212.7158203125 -2.1416015625Q211.90234375 -3.38671875 211.90234375 -5.212890625Q211.90234375 -7.3046875 212.92333984375 -8.45849609375Q213.9443359375 -9.6123046875 215.56298828125 -10.13525390625Q217.181640625 -10.658203125 218.974609375 -10.8408203125Q221.3984375 -11.1064453125 222.4775390625 -11.33056640625Q223.556640625 -11.5546875 223.556640625 -12.517578125V-12.6005859375Q223.556640625 -13.9619140625 222.7265625 -14.71728515625Q221.896484375 -15.47265625 220.3193359375 -15.47265625Q218.6923828125 -15.47265625 217.7294921875 -14.7587890625Q216.7666015625 -14.044921875 216.4345703125 -13.1318359375L212.43359375 -13.9453125Q213.2470703125 -16.40234375 215.38037109375 -17.59765625Q217.513671875 -18.79296875 220.302734375 -18.79296875Q221.6142578125 -18.79296875 222.95068359375 -18.48583984375Q224.287109375 -18.1787109375 225.3994140625 -17.45654296875Q226.51171875 -16.734375 227.1923828125 -15.49755859375Q227.873046875 -14.2607421875 227.873046875 -12.4013671875V0.0H223.7392578125V-2.556640625H223.5732421875Q222.958984375 -1.361328125 221.6142578125 -0.48974609375Q220.26953125 0.3818359375 218.111328125 0.3818359375ZM219.2236328125 -2.822265625Q221.2158203125 -2.822265625 222.40283203125 -3.9677734375Q223.58984375 -5.11328125 223.58984375 -6.6572265625V-8.8486328125Q223.291015625 -8.6162109375 222.52734375 -8.44189453125Q221.763671875 -8.267578125 220.90869140625 -8.14306640625Q220.0537109375 -8.0185546875 219.4892578125 -7.935546875Q218.0283203125 -7.736328125 217.05712890625 -7.138671875Q216.0859375 -6.541015625 216.0859375 -5.2626953125Q216.0859375 -4.0673828125 216.9658203125 -3.44482421875Q217.845703125 -2.822265625 219.2236328125 -2.822265625ZM241.0380859375 -18.560546875V-15.173828125H237.4521484375V-5.2294921875Q237.4521484375 -4.216796875 237.87548828125 -3.74365234375Q238.298828125 -3.2705078125 239.294921875 -3.2705078125Q239.59375 -3.2705078125 240.0751953125 -3.34521484375Q240.556640625 -3.419921875 240.8720703125 -3.486328125L241.552734375 -0.1494140625Q240.8388671875 0.06640625 240.091796875 0.15771484375Q239.3447265625 0.2490234375 238.6640625 0.2490234375Q235.9912109375 0.2490234375 234.5634765625 -1.0791015625Q233.1357421875 -2.4072265625 233.1357421875 -4.8642578125V-15.173828125H230.49609375V-18.560546875H233.1357421875V-22.9765625H237.4521484375V-18.560546875ZM244.4580078125 0.0V-18.560546875H248.7744140625V0.0ZM246.6162109375 -21.18359375Q245.5869140625 -21.18359375 244.84814453125 -21.87255859375Q244.109375 -22.5615234375 244.109375 -23.5576171875Q244.109375 -24.537109375 244.84814453125 -25.22607421875Q245.5869140625 -25.9150390625 246.6162109375 -25.9150390625Q247.662109375 -25.9150390625 248.40087890625 -25.22607421875Q249.1396484375 -24.537109375 249.1396484375 -23.5576171875Q249.1396484375 -22.5615234375 248.40087890625 -21.87255859375Q247.662109375 -21.18359375 246.6162109375 -21.18359375ZM261.5576171875 0.3818359375Q258.751953125 0.3818359375 256.73486328125 -0.796875Q254.7177734375 -1.9755859375 253.63037109375 -4.1171875Q252.54296875 -6.2587890625 252.54296875 -9.1640625Q252.54296875 -12.01953125 253.61376953125 -14.18603515625Q254.6845703125 -16.3525390625 256.65185546875 -17.57275390625Q258.619140625 -18.79296875 261.275390625 -18.79296875Q263.533203125 -18.79296875 265.46728515625 -17.80517578125Q267.4013671875 -16.8173828125 268.580078125 -14.75048828125Q269.7587890625 -12.68359375 269.7587890625 -9.4296875V-8.068359375H256.8427734375Q256.92578125 -5.5947265625 258.22900390625 -4.2998046875Q259.5322265625 -3.0048828125 261.607421875 -3.0048828125Q263.03515625 -3.0048828125 264.05615234375 -3.619140625Q265.0771484375 -4.2333984375 265.5087890625 -5.412109375L269.4765625 -4.5986328125Q268.8125 -2.357421875 266.72900390625 -0.98779296875Q264.6455078125 0.3818359375 261.5576171875 0.3818359375ZM256.859375 -11.0068359375H265.55859375Q265.359375 -12.9990234375 264.28857421875 -14.20263671875Q263.2177734375 -15.40625 261.2919921875 -15.40625Q259.31640625 -15.40625 258.16259765625 -14.13623046875Q257.0087890625 -12.8662109375 256.859375 -11.0068359375ZM277.77734375 -10.8740234375V0.0H273.4609375V-18.560546875H277.544921875L277.5947265625 -14.8583984375Q279.2548828125 -18.79296875 283.3388671875 -18.79296875Q286.2109375 -18.79296875 287.94580078125 -16.966796875Q289.6806640625 -15.140625 289.6806640625 -11.8037109375V0.0H285.3642578125V-11.1396484375Q285.3642578125 -12.9990234375 284.4013671875 -14.0615234375Q283.4384765625 -15.1240234375 281.7451171875 -15.1240234375Q280.0185546875 -15.1240234375 278.89794921875 -14.01171875Q277.77734375 -12.8994140625 277.77734375 -10.8740234375ZM302.845703125 -18.560546875V-15.173828125H299.259765625V-5.2294921875Q299.259765625 -4.216796875 299.68310546875 -3.74365234375Q300.1064453125 -3.2705078125 301.1025390625 -3.2705078125Q301.4013671875 -3.2705078125 301.8828125 -3.34521484375Q302.3642578125 -3.419921875 302.6796875 -3.486328125L303.3603515625 -0.1494140625Q302.646484375 0.06640625 301.8994140625 0.15771484375Q301.15234375 0.2490234375 300.4716796875 0.2490234375Q297.798828125 0.2490234375 296.37109375 -1.0791015625Q294.943359375 -2.4072265625 294.943359375 -4.8642578125V-15.173828125H292.3037109375V-18.560546875H294.943359375V-22.9765625H299.259765625V-18.560546875ZM309.38671875 0.2822265625Q308.2744140625 0.2822265625 307.50244140625 -0.4814453125Q306.73046875 -1.2451171875 306.73046875 -2.3740234375Q306.73046875 -3.486328125 307.50244140625 -4.25Q308.2744140625 -5.013671875 309.38671875 -5.013671875Q310.515625 -5.013671875 311.28759765625 -4.25Q312.0595703125 -3.486328125 312.0595703125 -2.3740234375Q312.0595703125 -1.2451171875 311.28759765625 -0.4814453125Q310.515625 0.2822265625 309.38671875 0.2822265625Z" fill="#18B6A4"/></svg>
